<svg width="21" height="24" viewBox="0 0 21 24" fill="none" xmlns="http://www.w3.org/2000/svg">
<g clip-path="url(#clip0_1_554)">
<path d="M4.39797 20.4853L17.6184 4.6461C17.8792 4.3337 17.8792 3.82713 17.6184 3.51473C17.3577 3.20234 16.9349 3.20233 16.6741 3.51473L3.45366 19.3539C3.19291 19.6663 3.19291 20.1729 3.45366 20.4853C3.71441 20.7977 4.13722 20.7977 4.39797 20.4853Z" fill="#E75624"/>
<path d="M17.6186 19.3539L4.39819 3.51472C4.13743 3.20232 3.71461 3.20233 3.45386 3.51472C3.19312 3.82712 3.19311 4.3337 3.45387 4.6461L16.6743 20.4853C16.9351 20.7977 17.3579 20.7977 17.6186 20.4853C17.8794 20.1729 17.8794 19.6663 17.6186 19.3539Z" fill="#E75624"/>
</g>
<defs>
<clipPath id="clip0_1_554">
<rect width="20.032" height="24" fill="white" transform="translate(0.52002)"/>
</clipPath>
</defs>
</svg>
